<svg width="22" height="22" viewBox="0 0 22 22" fill="none" xmlns="http://www.w3.org/2000/svg">
<circle cx="11" cy="11" r="10.1" fill="#D3C200" stroke="#C4C4C4" stroke-width="0.2"/>
<g filter="url(#filter0_i_208_20)">
<circle cx="11" cy="11" r="8" fill="#C58600"/>
</g>
<circle cx="11" cy="11" r="7.75" stroke="#7F5908" stroke-opacity="0.32" stroke-width="0.5"/>
<mask id="path-4-outside-1_208_20" maskUnits="userSpaceOnUse" x="6" y="8" width="11" height="7" fill="black">
<rect fill="white" x="6" y="8" width="11" height="7"/>
<path d="M7.63514 9.32971V10.8259H9.91863V9.32971C9.91863 9.11596 9.96613 8.95566 10.0611 8.84878C10.1585 8.74191 10.2856 8.68848 10.4423 8.68848C10.6014 8.68848 10.7297 8.74191 10.827 8.84878C10.9268 8.95328 10.9767 9.11359 10.9767 9.32971V13.4443C10.9767 13.6604 10.9268 13.8219 10.827 13.9288C10.7273 14.0356 10.599 14.0891 10.4423 14.0891C10.2832 14.0891 10.1561 14.0356 10.0611 13.9288C9.96613 13.8195 9.91863 13.658 9.91863 13.4443V11.688H7.63514V13.4443C7.63514 13.6604 7.58526 13.8219 7.48552 13.9288C7.38577 14.0356 7.25752 14.0891 7.10078 14.0891C6.94166 14.0891 6.8146 14.0356 6.7196 13.9288C6.62461 13.8195 6.57711 13.658 6.57711 13.4443V9.32971C6.57711 9.11596 6.62342 8.95566 6.71604 8.84878C6.81104 8.74191 6.93928 8.68848 7.10078 8.68848C7.2599 8.68848 7.38814 8.74191 7.48552 8.84878C7.58526 8.95328 7.63514 9.11359 7.63514 9.32971ZM16.5625 12.3506C16.5625 12.5169 16.5209 12.6974 16.4378 12.8921C16.3571 13.0845 16.2288 13.2745 16.0531 13.4621C15.8773 13.6473 15.6529 13.7981 15.3798 13.9145C15.1067 14.0309 14.7884 14.0891 14.4251 14.0891C14.1496 14.0891 13.899 14.0629 13.6734 14.0107C13.4478 13.9584 13.2423 13.8777 13.0571 13.7684C12.8742 13.6568 12.7056 13.5108 12.5512 13.3303C12.4135 13.1664 12.2959 12.9835 12.1986 12.7817C12.1012 12.5774 12.0276 12.3601 11.9777 12.1297C11.9302 11.8994 11.9064 11.6548 11.9064 11.3959C11.9064 10.9755 11.967 10.5991 12.0881 10.2666C12.2116 9.93413 12.3874 9.65032 12.6154 9.4152C12.8434 9.17771 13.1105 8.99722 13.4169 8.87372C13.7233 8.75022 14.0498 8.68848 14.3966 8.68848C14.8193 8.68848 15.1957 8.77279 15.5258 8.94141C15.8559 9.11003 16.1089 9.31902 16.2846 9.56839C16.4604 9.81538 16.5482 10.0493 16.5482 10.2702C16.5482 10.3913 16.5055 10.4982 16.42 10.5908C16.3345 10.6834 16.2312 10.7297 16.1101 10.7297C15.9747 10.7297 15.8726 10.6977 15.8037 10.6335C15.7372 10.5694 15.6624 10.459 15.5793 10.3022C15.4415 10.0434 15.2788 9.84982 15.0912 9.72157C14.906 9.59332 14.6768 9.5292 14.4037 9.5292C13.9691 9.5292 13.6223 9.69426 13.3635 10.0244C13.107 10.3545 12.9787 10.8235 12.9787 11.4315C12.9787 11.8376 13.0357 12.1761 13.1497 12.4468C13.2637 12.7152 13.4252 12.9158 13.6342 13.0488C13.8432 13.1818 14.0878 13.2483 14.3681 13.2483C14.672 13.2483 14.9285 13.1735 15.1375 13.0239C15.3489 12.8719 15.508 12.6499 15.6149 12.3577C15.66 12.22 15.7158 12.1084 15.7823 12.0229C15.8488 11.935 15.9557 11.8911 16.1029 11.8911C16.2288 11.8911 16.3369 11.935 16.4271 12.0229C16.5174 12.1107 16.5625 12.22 16.5625 12.3506Z"/>
</mask>
<path d="M7.63514 9.32971V10.8259H9.91863V9.32971C9.91863 9.11596 9.96613 8.95566 10.0611 8.84878C10.1585 8.74191 10.2856 8.68848 10.4423 8.68848C10.6014 8.68848 10.7297 8.74191 10.827 8.84878C10.9268 8.95328 10.9767 9.11359 10.9767 9.32971V13.4443C10.9767 13.6604 10.9268 13.8219 10.827 13.9288C10.7273 14.0356 10.599 14.0891 10.4423 14.0891C10.2832 14.0891 10.1561 14.0356 10.0611 13.9288C9.96613 13.8195 9.91863 13.658 9.91863 13.4443V11.688H7.63514V13.4443C7.63514 13.6604 7.58526 13.8219 7.48552 13.9288C7.38577 14.0356 7.25752 14.0891 7.10078 14.0891C6.94166 14.0891 6.8146 14.0356 6.7196 13.9288C6.62461 13.8195 6.57711 13.658 6.57711 13.4443V9.32971C6.57711 9.11596 6.62342 8.95566 6.71604 8.84878C6.81104 8.74191 6.93928 8.68848 7.10078 8.68848C7.2599 8.68848 7.38814 8.74191 7.48552 8.84878C7.58526 8.95328 7.63514 9.11359 7.63514 9.32971ZM16.5625 12.3506C16.5625 12.5169 16.5209 12.6974 16.4378 12.8921C16.3571 13.0845 16.2288 13.2745 16.0531 13.4621C15.8773 13.6473 15.6529 13.7981 15.3798 13.9145C15.1067 14.0309 14.7884 14.0891 14.4251 14.0891C14.1496 14.0891 13.899 14.0629 13.6734 14.0107C13.4478 13.9584 13.2423 13.8777 13.0571 13.7684C12.8742 13.6568 12.7056 13.5108 12.5512 13.3303C12.4135 13.1664 12.2959 12.9835 12.1986 12.7817C12.1012 12.5774 12.0276 12.3601 11.9777 12.1297C11.9302 11.8994 11.9064 11.6548 11.9064 11.3959C11.9064 10.9755 11.967 10.5991 12.0881 10.2666C12.2116 9.93413 12.3874 9.65032 12.6154 9.4152C12.8434 9.17771 13.1105 8.99722 13.4169 8.87372C13.7233 8.75022 14.0498 8.68848 14.3966 8.68848C14.8193 8.68848 15.1957 8.77279 15.5258 8.94141C15.8559 9.11003 16.1089 9.31902 16.2846 9.56839C16.4604 9.81538 16.5482 10.0493 16.5482 10.2702C16.5482 10.3913 16.5055 10.4982 16.42 10.5908C16.3345 10.6834 16.2312 10.7297 16.1101 10.7297C15.9747 10.7297 15.8726 10.6977 15.8037 10.6335C15.7372 10.5694 15.6624 10.459 15.5793 10.3022C15.4415 10.0434 15.2788 9.84982 15.0912 9.72157C14.906 9.59332 14.6768 9.5292 14.4037 9.5292C13.9691 9.5292 13.6223 9.69426 13.3635 10.0244C13.107 10.3545 12.9787 10.8235 12.9787 11.4315C12.9787 11.8376 13.0357 12.1761 13.1497 12.4468C13.2637 12.7152 13.4252 12.9158 13.6342 13.0488C13.8432 13.1818 14.0878 13.2483 14.3681 13.2483C14.672 13.2483 14.9285 13.1735 15.1375 13.0239C15.3489 12.8719 15.508 12.6499 15.6149 12.3577C15.66 12.22 15.7158 12.1084 15.7823 12.0229C15.8488 11.935 15.9557 11.8911 16.1029 11.8911C16.2288 11.8911 16.3369 11.935 16.4271 12.0229C16.5174 12.1107 16.5625 12.22 16.5625 12.3506Z" fill="#D3C200"/>
<path d="M7.63514 10.8259H7.43514V11.0259H7.63514V10.8259ZM9.91863 10.8259V11.0259H10.1186V10.8259H9.91863ZM10.0611 8.84878L9.91327 8.71408L9.91164 8.71591L10.0611 8.84878ZM10.827 8.84878L10.6792 8.98352L10.6824 8.98688L10.827 8.84878ZM10.0611 13.9288L9.91019 14.06L9.91164 14.0616L10.0611 13.9288ZM9.91863 11.688H10.1186V11.488H9.91863V11.688ZM7.63514 11.688V11.488H7.43514V11.688H7.63514ZM6.7196 13.9288L6.56867 14.06L6.57012 14.0616L6.7196 13.9288ZM6.71604 8.84878L6.56655 8.7159L6.5649 8.7178L6.71604 8.84878ZM7.48552 8.84878L7.33764 8.98352L7.34085 8.98688L7.48552 8.84878ZM7.43514 9.32971V10.8259H7.83514V9.32971H7.43514ZM7.63514 11.0259H9.91863V10.6259H7.63514V11.0259ZM10.1186 10.8259V9.32971H9.71863V10.8259H10.1186ZM10.1186 9.32971C10.1186 9.14137 10.161 9.03747 10.2106 8.98166L9.91164 8.71591C9.77126 8.87384 9.71863 9.09056 9.71863 9.32971H10.1186ZM10.209 8.98348C10.265 8.92197 10.3365 8.88848 10.4423 8.88848V8.48848C10.2346 8.48848 10.052 8.56185 9.91329 8.71409L10.209 8.98348ZM10.4423 8.88848C10.5515 8.88848 10.6238 8.92265 10.6792 8.98348L10.9749 8.71409C10.8356 8.56117 10.6514 8.48848 10.4423 8.48848V8.88848ZM10.6824 8.98688C10.7324 9.03931 10.7767 9.13996 10.7767 9.32971H11.1767C11.1767 9.08722 11.1212 8.86725 10.9717 8.71069L10.6824 8.98688ZM10.7767 9.32971V13.4443H11.1767V9.32971H10.7767ZM10.7767 13.4443C10.7767 13.6336 10.7326 13.7368 10.6808 13.7923L10.9732 14.0652C11.121 13.9069 11.1767 13.6872 11.1767 13.4443H10.7767ZM10.6808 13.7923C10.6219 13.8555 10.5481 13.8891 10.4423 13.8891V14.2891C10.65 14.2891 10.8327 14.2158 10.9732 14.0652L10.6808 13.7923ZM10.4423 13.8891C10.3331 13.8891 10.2631 13.855 10.2106 13.7959L9.91164 14.0616C10.0491 14.2163 10.2332 14.2891 10.4423 14.2891V13.8891ZM10.212 13.7975C10.1608 13.7386 10.1186 13.6322 10.1186 13.4443H9.71863C9.71863 13.6839 9.77144 13.9004 9.9102 14.06L10.212 13.7975ZM10.1186 13.4443V11.688H9.71863V13.4443H10.1186ZM9.91863 11.488H7.63514V11.888H9.91863V11.488ZM7.43514 11.688V13.4443H7.83514V11.688H7.43514ZM7.43514 13.4443C7.43514 13.6336 7.39108 13.7368 7.33931 13.7923L7.63173 14.0652C7.77945 13.9069 7.83514 13.6872 7.83514 13.4443H7.43514ZM7.33931 13.7923C7.28034 13.8555 7.20657 13.8891 7.10078 13.8891V14.2891C7.30848 14.2891 7.4912 14.2158 7.63173 14.0652L7.33931 13.7923ZM7.10078 13.8891C6.99159 13.8891 6.9216 13.855 6.86908 13.7959L6.57012 14.0616C6.7076 14.2163 6.89172 14.2891 7.10078 14.2891V13.8891ZM6.87052 13.7975C6.81929 13.7386 6.77711 13.6322 6.77711 13.4443H6.37711C6.37711 13.6839 6.42992 13.9004 6.56868 14.06L6.87052 13.7975ZM6.77711 13.4443V9.32971H6.37711V13.4443H6.77711ZM6.77711 9.32971C6.77711 9.14033 6.81875 9.03565 6.86718 8.97977L6.5649 8.7178C6.42808 8.87567 6.37711 9.09159 6.37711 9.32971H6.77711ZM6.86552 8.98166C6.91743 8.92326 6.98819 8.88848 7.10078 8.88848V8.48848C6.89037 8.48848 6.70465 8.56056 6.56656 8.71591L6.86552 8.98166ZM7.10078 8.88848C7.20994 8.88848 7.28226 8.92265 7.33768 8.98348L7.63336 8.71409C7.49403 8.56117 7.30986 8.48848 7.10078 8.48848V8.88848ZM7.34085 8.98688C7.3909 9.03931 7.43514 9.13996 7.43514 9.32971H7.83514C7.83514 9.08722 7.77963 8.86725 7.63019 8.71069L7.34085 8.98688ZM16.4378 12.8921L16.2539 12.8136L16.2534 12.8147L16.4378 12.8921ZM16.0531 13.4621L16.1982 13.5997L16.199 13.5988L16.0531 13.4621ZM13.0571 13.7684L12.9529 13.9392L12.9555 13.9407L13.0571 13.7684ZM12.5512 13.3303L12.3981 13.459L12.3992 13.4603L12.5512 13.3303ZM12.1986 12.7817L12.018 12.8677L12.0184 12.8686L12.1986 12.7817ZM11.9777 12.1297L11.7818 12.1701L11.7822 12.1721L11.9777 12.1297ZM12.0881 10.2666L11.9006 10.197L11.9002 10.1982L12.0881 10.2666ZM12.6154 9.4152L12.7589 9.55444L12.7596 9.55371L12.6154 9.4152ZM16.2846 9.56839L16.1211 9.6836L16.1217 9.68434L16.2846 9.56839ZM15.8037 10.6335L15.6648 10.7775L15.6674 10.7799L15.8037 10.6335ZM15.5793 10.3022L15.756 10.2085L15.7558 10.2083L15.5793 10.3022ZM15.0912 9.72157L14.9774 9.88601L14.9784 9.88668L15.0912 9.72157ZM13.3635 10.0244L13.2061 9.90096L13.2055 9.90166L13.3635 10.0244ZM13.1497 12.4468L12.9654 12.5244L12.9656 12.525L13.1497 12.4468ZM13.6342 13.0488L13.5268 13.2176L13.6342 13.0488ZM15.1375 13.0239L15.254 13.1865L15.2543 13.1863L15.1375 13.0239ZM15.6149 12.3577L15.8028 12.4265L15.805 12.42L15.6149 12.3577ZM15.7823 12.0229L15.9402 12.1457L15.9418 12.1436L15.7823 12.0229ZM16.4271 12.0229L16.2876 12.1662L16.4271 12.0229ZM16.3625 12.3506C16.3625 12.4836 16.3292 12.6371 16.2539 12.8136L16.6217 12.9706C16.7127 12.7576 16.7625 12.5501 16.7625 12.3506H16.3625ZM16.2534 12.8147C16.1837 12.9807 16.0702 13.1512 15.9071 13.3254L16.199 13.5988C16.3874 13.3977 16.5304 13.1882 16.6222 12.9695L16.2534 12.8147ZM15.908 13.3244C15.7539 13.4869 15.5534 13.6231 15.3014 13.7305L15.4582 14.0985C15.7524 13.9731 16.0008 13.8078 16.1982 13.5997L15.908 13.3244ZM15.3014 13.7305C15.0579 13.8342 14.7673 13.8891 14.4251 13.8891V14.2891C14.8095 14.2891 15.1554 14.2275 15.4582 14.0985L15.3014 13.7305ZM14.4251 13.8891C14.162 13.8891 13.9269 13.8641 13.7185 13.8158L13.6283 14.2055C13.8712 14.2618 14.1371 14.2891 14.4251 14.2891V13.8891ZM13.7185 13.8158C13.5112 13.7678 13.3251 13.6943 13.1587 13.5962L12.9555 13.9407C13.1596 14.0611 13.3843 14.149 13.6283 14.2055L13.7185 13.8158ZM13.1613 13.5977C12.9982 13.4982 12.8454 13.3665 12.7032 13.2003L12.3992 13.4603C12.5658 13.655 12.7502 13.8154 12.9529 13.9392L13.1613 13.5977ZM12.7043 13.2016C12.5778 13.051 12.4692 12.8823 12.3787 12.6948L12.0184 12.8686C12.1227 13.0847 12.2492 13.2818 12.3981 13.459L12.7043 13.2016ZM12.3791 12.6956C12.2886 12.5059 12.2199 12.3033 12.1732 12.0874L11.7822 12.1721C11.8352 12.4169 11.9137 12.649 12.018 12.8677L12.3791 12.6956ZM12.1736 12.0894C12.1291 11.8735 12.1064 11.6425 12.1064 11.3959H11.7064C11.7064 11.667 11.7313 11.9252 11.7818 12.1701L12.1736 12.0894ZM12.1064 11.3959C12.1064 10.9946 12.1643 10.6419 12.276 10.3351L11.9002 10.1982C11.7697 10.5563 11.7064 10.9565 11.7064 11.3959H12.1064ZM12.2756 10.3363C12.3903 10.0276 12.5518 9.76804 12.7589 9.55443L12.4718 9.27598C12.2229 9.5326 12.033 9.84068 11.9006 10.197L12.2756 10.3363ZM12.7596 9.55371C12.968 9.33669 13.2114 9.17218 13.4917 9.05922L13.3421 8.68822C13.0096 8.82226 12.7187 9.01873 12.4711 9.2767L12.7596 9.55371ZM13.4917 9.05922C13.7731 8.94577 14.0741 8.88848 14.3966 8.88848V8.48848C14.0255 8.48848 13.6734 8.55468 13.3421 8.68822L13.4917 9.05922ZM14.3966 8.88848C14.7921 8.88848 15.1366 8.96719 15.4349 9.11952L15.6168 8.7633C15.2548 8.57838 14.8464 8.48848 14.3966 8.48848V8.88848ZM15.4349 9.11952C15.7422 9.27651 15.9677 9.4659 16.1211 9.6836L16.4481 9.45317C16.25 9.17214 15.9697 8.94354 15.6168 8.7633L15.4349 9.11952ZM16.1217 9.68434C16.2821 9.90979 16.3482 10.1038 16.3482 10.2702H16.7482C16.7482 9.99483 16.6386 9.72097 16.4476 9.45244L16.1217 9.68434ZM16.3482 10.2702C16.3482 10.3388 16.326 10.3978 16.273 10.4551L16.567 10.7264C16.685 10.5985 16.7482 10.4438 16.7482 10.2702H16.3482ZM16.273 10.4551C16.2237 10.5086 16.1728 10.5297 16.1101 10.5297V10.9297C16.2895 10.9297 16.4453 10.8582 16.567 10.7264L16.273 10.4551ZM16.1101 10.5297C16.0032 10.5297 15.9584 10.5043 15.94 10.4872L15.6674 10.7799C15.7868 10.891 15.9462 10.9297 16.1101 10.9297V10.5297ZM15.9425 10.4896C15.8994 10.448 15.8365 10.3605 15.756 10.2085L15.4026 10.3959C15.4882 10.5575 15.575 10.6908 15.6649 10.7775L15.9425 10.4896ZM15.7558 10.2083C15.6072 9.92894 15.425 9.70745 15.2041 9.55646L14.9784 9.88668C15.1327 9.99218 15.2759 10.1578 15.4027 10.3962L15.7558 10.2083ZM15.2051 9.55713C14.9798 9.40119 14.7087 9.3292 14.4037 9.3292V9.7292C14.6449 9.7292 14.8321 9.78545 14.9774 9.88601L15.2051 9.55713ZM14.4037 9.3292C13.9102 9.3292 13.5044 9.52051 13.2061 9.90096L13.5208 10.1478C13.7402 9.86801 14.0279 9.7292 14.4037 9.7292V9.3292ZM13.2055 9.90166C12.9118 10.2797 12.7787 10.7986 12.7787 11.4315H13.1787C13.1787 10.8485 13.3021 10.4293 13.5214 10.1471L13.2055 9.90166ZM12.7787 11.4315C12.7787 11.8548 12.8379 12.2216 12.9654 12.5244L13.334 12.3692C13.2335 12.1305 13.1787 11.8205 13.1787 11.4315H12.7787ZM12.9656 12.525C13.0926 12.8238 13.278 13.0592 13.5268 13.2176L13.7416 12.8801C13.5724 12.7725 13.4348 12.6065 13.3338 12.3686L12.9656 12.525ZM13.5268 13.2176C13.772 13.3736 14.0549 13.4483 14.3681 13.4483V13.0483C14.1207 13.0483 13.9144 12.9901 13.7416 12.8801L13.5268 13.2176ZM14.3681 13.4483C14.706 13.4483 15.0051 13.3647 15.254 13.1865L15.0211 12.8613C14.8519 12.9824 14.6381 13.0483 14.3681 13.0483V13.4483ZM15.2543 13.1863C15.5041 13.0066 15.6848 12.7487 15.8027 12.4265L15.4271 12.289C15.3312 12.551 15.1937 12.7372 15.0208 12.8615L15.2543 13.1863ZM15.805 12.42C15.8452 12.2972 15.8917 12.208 15.9402 12.1457L15.6245 11.9001C15.5399 12.0087 15.4748 12.1428 15.4248 12.2955L15.805 12.42ZM15.9418 12.1436C15.9586 12.1214 15.9956 12.0911 16.1029 12.0911V11.6911C15.9158 11.6911 15.7391 11.7486 15.6228 11.9022L15.9418 12.1436ZM16.1029 12.0911C16.1766 12.0911 16.2347 12.1146 16.2876 12.1662L16.5666 11.8796C16.4391 11.7554 16.281 11.6911 16.1029 11.6911V12.0911ZM16.2876 12.1662C16.3376 12.2149 16.3625 12.2717 16.3625 12.3506H16.7625C16.7625 12.1683 16.6971 12.0066 16.5666 11.8796L16.2876 12.1662Z" fill="#8D5107" fill-opacity="0.37" mask="url(#path-4-outside-1_208_20)"/>
<defs>
<filter id="filter0_i_208_20" x="3" y="3" width="16" height="16" filterUnits="userSpaceOnUse" color-interpolation-filters="sRGB">
<feFlood flood-opacity="0" result="BackgroundImageFix"/>
<feBlend mode="normal" in="SourceGraphic" in2="BackgroundImageFix" result="shape"/>
<feColorMatrix in="SourceAlpha" type="matrix" values="0 0 0 0 0 0 0 0 0 0 0 0 0 0 0 0 0 0 127 0" result="hardAlpha"/>
<feOffset/>
<feGaussianBlur stdDeviation="2"/>
<feComposite in2="hardAlpha" operator="arithmetic" k2="-1" k3="1"/>
<feColorMatrix type="matrix" values="0 0 0 0 0 0 0 0 0 0 0 0 0 0 0 0 0 0 0.25 0"/>
<feBlend mode="normal" in2="shape" result="effect1_innerShadow_208_20"/>
</filter>
</defs>
</svg>
