<svg width="460" height="250" viewBox="0 0 460 250" fill="none" xmlns="http://www.w3.org/2000/svg">
<g filter="url(#filter0_i_208_6)">
<rect width="460" height="250" rx="125" fill="#006826"/>
</g>
<rect x="5" y="5" width="450" height="240" rx="120" stroke="#5F3400" stroke-width="10"/>
<g filter="url(#filter1_i_208_6)">
<rect x="7" y="8" width="446" height="233" rx="116.5" fill="#006826"/>
</g>
<rect x="8" y="9" width="444" height="231" rx="115.5" stroke="#4B2900" stroke-width="2"/>
<path d="M119.789 114.049V124H117.745V114.049H119.789ZM122.851 114.049V115.655H114.731V114.049H122.851ZM130.655 118.102V119.701H125.461V118.102H130.655ZM126.07 114.049V124H124.019V114.049H126.07ZM132.118 114.049V124H130.074V114.049H132.118ZM136.082 114.049V124H134.038V114.049H136.082ZM143.183 121.396C143.183 121.218 143.156 121.059 143.101 120.918C143.051 120.772 142.955 120.64 142.814 120.521C142.673 120.398 142.474 120.278 142.219 120.159C141.964 120.041 141.634 119.918 141.228 119.79C140.777 119.644 140.349 119.48 139.943 119.298C139.542 119.116 139.187 118.904 138.877 118.662C138.572 118.416 138.33 118.132 138.153 117.808C137.98 117.485 137.893 117.109 137.893 116.68C137.893 116.266 137.984 115.89 138.166 115.553C138.349 115.211 138.604 114.919 138.932 114.678C139.26 114.432 139.647 114.243 140.094 114.111C140.545 113.978 141.039 113.912 141.577 113.912C142.31 113.912 142.951 114.045 143.497 114.309C144.044 114.573 144.468 114.935 144.768 115.395C145.074 115.856 145.226 116.382 145.226 116.974H143.19C143.19 116.683 143.128 116.427 143.005 116.209C142.887 115.986 142.704 115.81 142.458 115.683C142.217 115.555 141.912 115.491 141.543 115.491C141.187 115.491 140.891 115.546 140.654 115.655C140.417 115.76 140.24 115.904 140.121 116.086C140.003 116.263 139.943 116.464 139.943 116.687C139.943 116.856 139.984 117.008 140.066 117.145C140.153 117.282 140.281 117.409 140.449 117.528C140.618 117.646 140.825 117.758 141.071 117.863C141.317 117.967 141.602 118.07 141.925 118.17C142.468 118.334 142.944 118.519 143.354 118.724C143.768 118.929 144.115 119.159 144.393 119.414C144.67 119.669 144.88 119.959 145.021 120.282C145.163 120.606 145.233 120.972 145.233 121.382C145.233 121.815 145.149 122.203 144.98 122.544C144.812 122.886 144.568 123.175 144.249 123.412C143.93 123.649 143.55 123.829 143.108 123.952C142.666 124.075 142.171 124.137 141.625 124.137C141.133 124.137 140.647 124.073 140.169 123.945C139.69 123.813 139.255 123.615 138.864 123.351C138.476 123.086 138.166 122.749 137.934 122.339C137.702 121.929 137.585 121.444 137.585 120.884H139.643C139.643 121.193 139.69 121.455 139.786 121.669C139.882 121.884 140.016 122.057 140.189 122.189C140.367 122.321 140.577 122.417 140.818 122.476C141.064 122.535 141.333 122.565 141.625 122.565C141.98 122.565 142.272 122.515 142.499 122.414C142.732 122.314 142.903 122.175 143.012 121.998C143.126 121.82 143.183 121.619 143.183 121.396ZM152.293 114.049V124H150.25V114.049H152.293ZM159.394 121.396C159.394 121.218 159.367 121.059 159.312 120.918C159.262 120.772 159.166 120.64 159.025 120.521C158.884 120.398 158.686 120.278 158.43 120.159C158.175 120.041 157.845 119.918 157.439 119.79C156.988 119.644 156.56 119.48 156.155 119.298C155.754 119.116 155.398 118.904 155.088 118.662C154.783 118.416 154.542 118.132 154.364 117.808C154.191 117.485 154.104 117.109 154.104 116.68C154.104 116.266 154.195 115.89 154.378 115.553C154.56 115.211 154.815 114.919 155.143 114.678C155.471 114.432 155.858 114.243 156.305 114.111C156.756 113.978 157.25 113.912 157.788 113.912C158.522 113.912 159.162 114.045 159.708 114.309C160.255 114.573 160.679 114.935 160.98 115.395C161.285 115.856 161.438 116.382 161.438 116.974H159.401C159.401 116.683 159.339 116.427 159.216 116.209C159.098 115.986 158.916 115.81 158.67 115.683C158.428 115.555 158.123 115.491 157.754 115.491C157.398 115.491 157.102 115.546 156.865 115.655C156.628 115.76 156.451 115.904 156.332 116.086C156.214 116.263 156.155 116.464 156.155 116.687C156.155 116.856 156.196 117.008 156.278 117.145C156.364 117.282 156.492 117.409 156.66 117.528C156.829 117.646 157.036 117.758 157.282 117.863C157.528 117.967 157.813 118.07 158.137 118.17C158.679 118.334 159.155 118.519 159.565 118.724C159.98 118.929 160.326 119.159 160.604 119.414C160.882 119.669 161.091 119.959 161.233 120.282C161.374 120.606 161.444 120.972 161.444 121.382C161.444 121.815 161.36 122.203 161.192 122.544C161.023 122.886 160.779 123.175 160.46 123.412C160.141 123.649 159.761 123.829 159.319 123.952C158.877 124.075 158.383 124.137 157.836 124.137C157.344 124.137 156.859 124.073 156.38 123.945C155.902 123.813 155.467 123.615 155.075 123.351C154.687 123.086 154.378 122.749 154.145 122.339C153.913 121.929 153.797 121.444 153.797 120.884H155.854C155.854 121.193 155.902 121.455 155.997 121.669C156.093 121.884 156.227 122.057 156.401 122.189C156.578 122.321 156.788 122.417 157.029 122.476C157.275 122.535 157.544 122.565 157.836 122.565C158.191 122.565 158.483 122.515 158.711 122.414C158.943 122.314 159.114 122.175 159.223 121.998C159.337 121.82 159.394 121.619 159.394 121.396ZM170.35 120.945V114.049H172.393V120.945C172.393 121.61 172.247 122.182 171.956 122.66C171.664 123.134 171.265 123.499 170.76 123.754C170.258 124.009 169.694 124.137 169.065 124.137C168.413 124.137 167.837 124.027 167.336 123.809C166.834 123.59 166.44 123.255 166.153 122.804C165.866 122.348 165.723 121.772 165.723 121.075H167.78C167.78 121.439 167.83 121.729 167.93 121.943C168.035 122.157 168.183 122.31 168.374 122.401C168.566 122.492 168.796 122.537 169.065 122.537C169.324 122.537 169.55 122.476 169.741 122.353C169.933 122.23 170.081 122.05 170.186 121.813C170.295 121.576 170.35 121.287 170.35 120.945ZM179.638 114.049H181.681V120.624C181.681 121.389 181.517 122.034 181.189 122.558C180.865 123.082 180.417 123.476 179.843 123.74C179.273 124.005 178.617 124.137 177.874 124.137C177.132 124.137 176.471 124.005 175.892 123.74C175.318 123.476 174.867 123.082 174.539 122.558C174.216 122.034 174.054 121.389 174.054 120.624V114.049H176.104V120.624C176.104 121.07 176.175 121.435 176.316 121.717C176.457 122 176.66 122.207 176.924 122.339C177.193 122.471 177.51 122.537 177.874 122.537C178.248 122.537 178.565 122.471 178.824 122.339C179.089 122.207 179.289 122 179.426 121.717C179.567 121.435 179.638 121.07 179.638 120.624V114.049ZM188.55 121.396C188.55 121.218 188.522 121.059 188.468 120.918C188.418 120.772 188.322 120.64 188.181 120.521C188.039 120.398 187.841 120.278 187.586 120.159C187.331 120.041 187.001 119.918 186.595 119.79C186.144 119.644 185.716 119.48 185.31 119.298C184.909 119.116 184.554 118.904 184.244 118.662C183.939 118.416 183.697 118.132 183.52 117.808C183.346 117.485 183.26 117.109 183.26 116.68C183.26 116.266 183.351 115.89 183.533 115.553C183.715 115.211 183.971 114.919 184.299 114.678C184.627 114.432 185.014 114.243 185.46 114.111C185.912 113.978 186.406 113.912 186.944 113.912C187.677 113.912 188.317 114.045 188.864 114.309C189.411 114.573 189.835 114.935 190.135 115.395C190.44 115.856 190.593 116.382 190.593 116.974H188.556C188.556 116.683 188.495 116.427 188.372 116.209C188.253 115.986 188.071 115.81 187.825 115.683C187.584 115.555 187.278 115.491 186.909 115.491C186.554 115.491 186.258 115.546 186.021 115.655C185.784 115.76 185.606 115.904 185.488 116.086C185.369 116.263 185.31 116.464 185.31 116.687C185.31 116.856 185.351 117.008 185.433 117.145C185.52 117.282 185.647 117.409 185.816 117.528C185.984 117.646 186.192 117.758 186.438 117.863C186.684 117.967 186.969 118.07 187.292 118.17C187.834 118.334 188.31 118.519 188.721 118.724C189.135 118.929 189.481 119.159 189.759 119.414C190.037 119.669 190.247 119.959 190.388 120.282C190.529 120.606 190.6 120.972 190.6 121.382C190.6 121.815 190.516 122.203 190.347 122.544C190.179 122.886 189.935 123.175 189.616 123.412C189.297 123.649 188.916 123.829 188.474 123.952C188.033 124.075 187.538 124.137 186.991 124.137C186.499 124.137 186.014 124.073 185.536 123.945C185.057 123.813 184.622 123.615 184.23 123.351C183.843 123.086 183.533 122.749 183.301 122.339C183.068 121.929 182.952 121.444 182.952 120.884H185.009C185.009 121.193 185.057 121.455 185.153 121.669C185.249 121.884 185.383 122.057 185.556 122.189C185.734 122.321 185.943 122.417 186.185 122.476C186.431 122.535 186.7 122.565 186.991 122.565C187.347 122.565 187.638 122.515 187.866 122.414C188.099 122.314 188.269 122.175 188.379 121.998C188.493 121.82 188.55 121.619 188.55 121.396ZM196.443 114.049V124H194.4V114.049H196.443ZM199.505 114.049V115.655H191.386V114.049H199.505ZM207.836 115.751L205.13 124H202.95L206.647 114.049H208.035L207.836 115.751ZM210.085 124L207.372 115.751L207.153 114.049H208.554L212.272 124H210.085ZM209.962 120.296V121.902H204.706V120.296H209.962ZM224.567 118.799V122.742C224.412 122.929 224.173 123.132 223.849 123.351C223.526 123.565 223.109 123.749 222.599 123.904C222.088 124.059 221.471 124.137 220.747 124.137C220.104 124.137 219.519 124.032 218.99 123.822C218.462 123.608 218.006 123.296 217.623 122.886C217.245 122.476 216.953 121.975 216.748 121.382C216.543 120.786 216.441 120.104 216.441 119.339V118.717C216.441 117.952 216.539 117.27 216.735 116.674C216.935 116.077 217.22 115.573 217.589 115.163C217.958 114.753 218.398 114.441 218.908 114.227C219.418 114.013 219.986 113.906 220.61 113.906C221.476 113.906 222.186 114.047 222.742 114.329C223.298 114.607 223.722 114.995 224.013 115.491C224.31 115.983 224.492 116.548 224.56 117.186H222.571C222.521 116.849 222.426 116.555 222.284 116.304C222.143 116.054 221.94 115.858 221.676 115.717C221.416 115.575 221.079 115.505 220.665 115.505C220.323 115.505 220.018 115.575 219.749 115.717C219.484 115.853 219.261 116.056 219.079 116.325C218.897 116.594 218.758 116.926 218.662 117.323C218.566 117.719 218.519 118.179 218.519 118.703V119.339C218.519 119.858 218.569 120.319 218.669 120.719C218.769 121.116 218.917 121.451 219.113 121.724C219.314 121.993 219.56 122.196 219.851 122.332C220.143 122.469 220.482 122.537 220.87 122.537C221.193 122.537 221.462 122.51 221.676 122.455C221.895 122.401 222.07 122.335 222.202 122.257C222.339 122.175 222.444 122.098 222.517 122.025V120.262H220.644V118.799H224.567ZM230.267 115.751L227.56 124H225.38L229.078 114.049H230.465L230.267 115.751ZM232.515 124L229.802 115.751L229.583 114.049H230.984L234.702 124H232.515ZM232.392 120.296V121.902H227.137V120.296H232.392ZM236.561 114.049H238.297L240.853 121.355L243.409 114.049H245.145L241.55 124H240.156L236.561 114.049ZM235.625 114.049H237.354L237.669 121.171V124H235.625V114.049ZM244.353 114.049H246.088V124H244.038V121.171L244.353 114.049ZM254.563 122.401V124H249.266V122.401H254.563ZM249.936 114.049V124H247.886V114.049H249.936ZM253.873 118.102V119.66H249.266V118.102H253.873ZM254.556 114.049V115.655H249.266V114.049H254.556ZM263.325 114.049V124H261.281V114.049H263.325ZM266.387 114.049V115.655H258.267V114.049H266.387ZM275.538 118.792V119.264C275.538 120.02 275.435 120.699 275.23 121.3C275.025 121.902 274.736 122.414 274.362 122.838C273.989 123.257 273.542 123.579 273.023 123.802C272.508 124.025 271.936 124.137 271.307 124.137C270.683 124.137 270.111 124.025 269.592 123.802C269.077 123.579 268.631 123.257 268.252 122.838C267.874 122.414 267.58 121.902 267.371 121.3C267.166 120.699 267.063 120.02 267.063 119.264V118.792C267.063 118.031 267.166 117.352 267.371 116.756C267.576 116.154 267.865 115.642 268.239 115.218C268.617 114.794 269.063 114.471 269.578 114.247C270.098 114.024 270.67 113.912 271.294 113.912C271.923 113.912 272.494 114.024 273.009 114.247C273.529 114.471 273.975 114.794 274.349 115.218C274.727 115.642 275.019 116.154 275.224 116.756C275.433 117.352 275.538 118.031 275.538 118.792ZM273.467 119.264V118.779C273.467 118.25 273.419 117.785 273.324 117.384C273.228 116.983 273.087 116.646 272.9 116.373C272.713 116.099 272.485 115.894 272.216 115.758C271.948 115.616 271.64 115.546 271.294 115.546C270.947 115.546 270.64 115.616 270.371 115.758C270.107 115.894 269.881 116.099 269.695 116.373C269.512 116.646 269.373 116.983 269.278 117.384C269.182 117.785 269.134 118.25 269.134 118.779V119.264C269.134 119.788 269.182 120.252 269.278 120.658C269.373 121.059 269.515 121.398 269.701 121.676C269.888 121.95 270.116 122.157 270.385 122.298C270.654 122.439 270.961 122.51 271.307 122.51C271.654 122.51 271.961 122.439 272.23 122.298C272.499 122.157 272.724 121.95 272.907 121.676C273.089 121.398 273.228 121.059 273.324 120.658C273.419 120.252 273.467 119.788 273.467 119.264ZM287.136 118.102V119.701H281.942V118.102H287.136ZM282.55 114.049V124H280.5V114.049H282.55ZM288.598 114.049V124H286.555V114.049H288.598ZM294.551 115.751L291.845 124H289.665L293.362 114.049H294.749L294.551 115.751ZM296.8 124L294.087 115.751L293.868 114.049H295.269L298.987 124H296.8ZM296.677 120.296V121.902H291.421V120.296H296.677ZM302.937 121.922L305.281 114.049H307.564L304.099 124H302.595L302.937 121.922ZM300.777 114.049L303.115 121.922L303.47 124H301.953L298.508 114.049H300.777ZM315.171 122.401V124H309.874V122.401H315.171ZM310.544 114.049V124H308.493V114.049H310.544ZM314.48 118.102V119.66H309.874V118.102H314.48ZM315.164 114.049V115.655H309.874V114.049H315.164ZM321.903 114.049V124H319.852V114.049H321.903ZM325.866 118.3V119.899H321.342V118.3H325.866ZM326.345 114.049V115.655H321.342V114.049H326.345ZM333.029 114.049H335.072V120.624C335.072 121.389 334.908 122.034 334.58 122.558C334.257 123.082 333.808 123.476 333.234 123.74C332.664 124.005 332.008 124.137 331.266 124.137C330.523 124.137 329.862 124.005 329.284 123.74C328.71 123.476 328.259 123.082 327.93 122.558C327.607 122.034 327.445 121.389 327.445 120.624V114.049H329.496V120.624C329.496 121.07 329.566 121.435 329.707 121.717C329.849 122 330.051 122.207 330.316 122.339C330.584 122.471 330.901 122.537 331.266 122.537C331.639 122.537 331.956 122.471 332.216 122.339C332.48 122.207 332.68 122 332.817 121.717C332.958 121.435 333.029 121.07 333.029 120.624V114.049ZM344.859 114.049V124H342.809L338.811 117.33V124H336.761V114.049H338.811L342.816 120.726V114.049H344.859Z" fill="black" fill-opacity="0.33"/>
<path d="M100.693 136.451H99.2391L99.2486 135.7H100.693C101.191 135.7 101.606 135.596 101.937 135.389C102.269 135.178 102.518 134.885 102.684 134.509C102.853 134.129 102.937 133.686 102.937 133.179V132.753C102.937 132.354 102.889 132 102.794 131.691C102.698 131.378 102.558 131.115 102.373 130.901C102.188 130.685 101.961 130.52 101.693 130.409C101.429 130.297 101.124 130.241 100.78 130.241H99.2104V129.485H100.78C101.236 129.485 101.652 129.562 102.028 129.715C102.405 129.865 102.728 130.083 102.999 130.37C103.274 130.654 103.484 130.999 103.631 131.404C103.778 131.806 103.851 132.259 103.851 132.763V133.179C103.851 133.683 103.778 134.137 103.631 134.542C103.484 134.944 103.272 135.287 102.995 135.571C102.72 135.855 102.389 136.073 101.999 136.226C101.614 136.376 101.178 136.451 100.693 136.451ZM99.7318 129.485V136.451H98.8085V129.485H99.7318ZM110.601 132.748V133.188C110.601 133.711 110.536 134.18 110.405 134.595C110.274 135.009 110.086 135.362 109.841 135.652C109.595 135.942 109.3 136.164 108.956 136.317C108.614 136.47 108.232 136.547 107.807 136.547C107.396 136.547 107.018 136.47 106.674 136.317C106.332 136.164 106.036 135.942 105.784 135.652C105.535 135.362 105.342 135.009 105.205 134.595C105.068 134.18 104.999 133.711 104.999 133.188V132.748C104.999 132.225 105.066 131.758 105.2 131.346C105.337 130.932 105.53 130.579 105.779 130.289C106.028 129.996 106.323 129.772 106.664 129.619C107.008 129.466 107.386 129.39 107.798 129.39C108.222 129.39 108.605 129.466 108.946 129.619C109.29 129.772 109.585 129.996 109.831 130.289C110.08 130.579 110.27 130.932 110.4 131.346C110.534 131.758 110.601 132.225 110.601 132.748ZM109.688 133.188V132.739C109.688 132.324 109.644 131.957 109.558 131.638C109.475 131.319 109.353 131.051 109.19 130.835C109.027 130.618 108.828 130.453 108.592 130.342C108.359 130.23 108.094 130.174 107.798 130.174C107.511 130.174 107.251 130.23 107.018 130.342C106.788 130.453 106.591 130.618 106.425 130.835C106.262 131.051 106.136 131.319 106.047 131.638C105.958 131.957 105.913 132.324 105.913 132.739V133.188C105.913 133.606 105.958 133.976 106.047 134.298C106.136 134.617 106.264 134.887 106.43 135.107C106.599 135.324 106.798 135.488 107.028 135.599C107.26 135.711 107.52 135.767 107.807 135.767C108.107 135.767 108.373 135.711 108.606 135.599C108.839 135.488 109.035 135.324 109.195 135.107C109.357 134.887 109.48 134.617 109.563 134.298C109.646 133.976 109.688 133.606 109.688 133.188ZM117.342 129.485V136.451H116.414L112.907 131.079V136.451H111.984V129.485H112.907L116.428 134.872V129.485H117.342ZM119.385 129.103V129.629L119.284 131.389H118.667L118.672 129.71V129.103H119.385ZM123.265 129.485V136.451H122.356V129.485H123.265ZM125.504 129.485V130.241H120.122V129.485H125.504ZM131.345 133.719H129.484V132.968H131.345C131.705 132.968 131.997 132.911 132.221 132.796C132.444 132.681 132.606 132.522 132.709 132.318C132.814 132.113 132.866 131.881 132.866 131.619C132.866 131.38 132.814 131.155 132.709 130.945C132.606 130.734 132.444 130.565 132.221 130.437C131.997 130.307 131.705 130.241 131.345 130.241H129.699V136.451H128.776V129.485H131.345C131.871 129.485 132.316 129.576 132.68 129.758C133.043 129.94 133.319 130.192 133.507 130.514C133.696 130.833 133.79 131.198 133.79 131.61C133.79 132.056 133.696 132.437 133.507 132.753C133.319 133.069 133.043 133.309 132.68 133.475C132.316 133.638 131.871 133.719 131.345 133.719ZM139.181 135.7V136.451H135.699V135.7H139.181ZM135.88 129.485V136.451H134.957V129.485H135.88ZM142.913 130.103L140.607 136.451H139.665L142.32 129.485H142.927L142.913 130.103ZM144.846 136.451L142.535 130.103L142.521 129.485H143.128L145.793 136.451H144.846ZM144.726 133.872V134.628H140.813V133.872H144.726ZM146.597 129.485L148.405 132.983L150.218 129.485H151.266L148.864 133.848V136.451H147.941V133.848L145.539 129.485H146.597ZM154.591 129.485H156.897C157.42 129.485 157.862 129.565 158.222 129.725C158.586 129.884 158.862 130.12 159.05 130.433C159.241 130.742 159.337 131.123 159.337 131.576C159.337 131.895 159.271 132.187 159.141 132.452C159.013 132.713 158.828 132.936 158.586 133.121C158.346 133.303 158.059 133.439 157.724 133.528L157.466 133.628H155.299L155.289 132.877H156.926C157.257 132.877 157.533 132.82 157.753 132.705C157.973 132.587 158.139 132.429 158.251 132.231C158.362 132.034 158.418 131.815 158.418 131.576C158.418 131.308 158.366 131.074 158.26 130.873C158.155 130.672 157.989 130.517 157.763 130.409C157.54 130.297 157.251 130.241 156.897 130.241H155.514V136.451H154.591V129.485ZM158.662 136.451L156.969 133.294L157.93 133.289L159.648 136.394V136.451H158.662ZM165.054 135.7V136.451H161.365V135.7H165.054ZM161.552 129.485V136.451H160.628V129.485H161.552ZM164.566 132.48V133.231H161.365V132.48H164.566ZM165.006 129.485V130.241H161.365V129.485H165.006ZM168.776 130.103L166.47 136.451H165.527L168.182 129.485H168.79L168.776 130.103ZM170.708 136.451L168.398 130.103L168.383 129.485H168.991L171.656 136.451H170.708ZM170.589 133.872V134.628H166.676V133.872H170.589ZM176.813 135.7V136.451H173.33V135.7H176.813ZM173.512 129.485V136.451H172.589V129.485H173.512ZM185.448 132.983V135.532C185.362 135.66 185.225 135.804 185.037 135.963C184.849 136.119 184.589 136.256 184.257 136.374C183.929 136.489 183.504 136.547 182.984 136.547C182.56 136.547 182.17 136.473 181.812 136.327C181.458 136.177 181.151 135.96 180.889 135.676C180.631 135.389 180.43 135.041 180.286 134.633C180.146 134.222 180.076 133.756 180.076 133.236V132.696C180.076 132.176 180.136 131.712 180.258 131.303C180.382 130.895 180.564 130.549 180.803 130.265C181.042 129.978 181.336 129.761 181.683 129.615C182.031 129.465 182.429 129.39 182.879 129.39C183.412 129.39 183.857 129.482 184.214 129.667C184.574 129.849 184.855 130.101 185.056 130.423C185.26 130.745 185.391 131.112 185.448 131.523H184.525C184.483 131.271 184.401 131.042 184.276 130.835C184.155 130.627 183.981 130.461 183.755 130.337C183.528 130.209 183.236 130.146 182.879 130.146C182.557 130.146 182.278 130.205 182.042 130.323C181.806 130.441 181.611 130.61 181.458 130.83C181.305 131.05 181.19 131.316 181.114 131.629C181.041 131.941 181.004 132.294 181.004 132.686V133.236C181.004 133.638 181.05 133.997 181.143 134.313C181.238 134.628 181.374 134.898 181.549 135.121C181.725 135.341 181.934 135.509 182.176 135.623C182.422 135.738 182.693 135.796 182.989 135.796C183.318 135.796 183.584 135.769 183.788 135.714C183.992 135.657 184.152 135.59 184.267 135.513C184.381 135.434 184.469 135.359 184.53 135.289V133.729H182.917V132.983H185.448ZM189.558 130.103L187.252 136.451H186.309L188.965 129.485H189.572L189.558 130.103ZM191.491 136.451L189.18 130.103L189.165 129.485H189.773L192.438 136.451H191.491ZM191.371 133.872V134.628H187.458V133.872H191.371ZM193.663 129.485H194.557L196.839 135.164L199.116 129.485H200.016L197.184 136.451H196.485L193.663 129.485ZM193.371 129.485H194.16L194.289 133.734V136.451H193.371V129.485ZM199.513 129.485H200.303V136.451H199.384V133.734L199.513 129.485ZM204.408 133.193H202.642L202.633 132.452H204.235C204.5 132.452 204.731 132.407 204.929 132.318C205.127 132.228 205.28 132.101 205.388 131.935C205.5 131.766 205.556 131.565 205.556 131.332C205.556 131.077 205.506 130.87 205.407 130.71C205.312 130.547 205.163 130.429 204.963 130.356C204.765 130.28 204.513 130.241 204.207 130.241H202.848V136.451H201.925V129.485H204.207C204.564 129.485 204.883 129.522 205.163 129.595C205.444 129.666 205.682 129.777 205.876 129.93C206.074 130.08 206.224 130.272 206.326 130.504C206.428 130.737 206.479 131.016 206.479 131.342C206.479 131.629 206.406 131.889 206.259 132.121C206.112 132.351 205.908 132.539 205.647 132.686C205.388 132.833 205.085 132.927 204.738 132.968L204.408 133.193ZM204.365 136.451H202.279L202.8 135.7H204.365C204.658 135.7 204.907 135.649 205.111 135.547C205.318 135.445 205.476 135.301 205.584 135.116C205.693 134.928 205.747 134.706 205.747 134.451C205.747 134.193 205.701 133.97 205.608 133.782C205.516 133.593 205.371 133.448 205.173 133.346C204.975 133.244 204.72 133.193 204.408 133.193H203.092L203.102 132.452H204.9L205.096 132.719C205.431 132.748 205.715 132.844 205.948 133.006C206.181 133.166 206.358 133.37 206.479 133.619C206.603 133.868 206.666 134.142 206.666 134.442C206.666 134.875 206.57 135.242 206.379 135.542C206.19 135.839 205.924 136.065 205.58 136.221C205.235 136.374 204.83 136.451 204.365 136.451ZM212.253 135.7V136.451H208.771V135.7H212.253ZM208.952 129.485V136.451H208.029V129.485H208.952ZM214.301 129.485V136.451H213.378V129.485H214.301ZM221.338 129.485V136.451H220.41L216.904 131.079V136.451H215.98V129.485H216.904L220.425 134.872V129.485H221.338ZM228.122 132.983V135.532C228.036 135.66 227.899 135.804 227.711 135.963C227.523 136.119 227.263 136.256 226.931 136.374C226.603 136.489 226.178 136.547 225.658 136.547C225.234 136.547 224.844 136.473 224.486 136.327C224.132 136.177 223.825 135.96 223.563 135.676C223.305 135.389 223.104 135.041 222.96 134.633C222.82 134.222 222.75 133.756 222.75 133.236V132.696C222.75 132.176 222.81 131.712 222.932 131.303C223.056 130.895 223.238 130.549 223.477 130.265C223.716 129.978 224.01 129.761 224.357 129.615C224.705 129.465 225.104 129.39 225.553 129.39C226.086 129.39 226.531 129.482 226.888 129.667C227.248 129.849 227.529 130.101 227.73 130.423C227.934 130.745 228.065 131.112 228.122 131.523H227.199C227.157 131.271 227.075 131.042 226.95 130.835C226.829 130.627 226.655 130.461 226.429 130.337C226.202 130.209 225.91 130.146 225.553 130.146C225.231 130.146 224.952 130.205 224.716 130.323C224.48 130.441 224.285 130.61 224.132 130.83C223.979 131.05 223.864 131.316 223.788 131.629C223.715 131.941 223.678 132.294 223.678 132.686V133.236C223.678 133.638 223.724 133.997 223.817 134.313C223.912 134.628 224.048 134.898 224.223 135.121C224.399 135.341 224.608 135.509 224.85 135.623C225.096 135.738 225.367 135.796 225.663 135.796C225.992 135.796 226.258 135.769 226.462 135.714C226.666 135.657 226.826 135.59 226.941 135.513C227.055 135.434 227.143 135.359 227.204 135.289V133.729H225.591V132.983H228.122ZM234.566 133.193H232.801L232.792 132.452H234.394C234.659 132.452 234.89 132.407 235.088 132.318C235.286 132.228 235.439 132.101 235.547 131.935C235.659 131.766 235.715 131.565 235.715 131.332C235.715 131.077 235.665 130.87 235.566 130.71C235.471 130.547 235.322 130.429 235.121 130.356C234.924 130.28 234.672 130.241 234.365 130.241H233.007V136.451H232.083V129.485H234.365C234.723 129.485 235.042 129.522 235.322 129.595C235.603 129.666 235.841 129.777 236.035 129.93C236.233 130.08 236.383 130.272 236.485 130.504C236.587 130.737 236.638 131.016 236.638 131.342C236.638 131.629 236.565 131.889 236.418 132.121C236.271 132.351 236.067 132.539 235.806 132.686C235.547 132.833 235.244 132.927 234.897 132.968L234.566 133.193ZM234.523 136.451H232.438L232.959 135.7H234.523C234.817 135.7 235.066 135.649 235.27 135.547C235.477 135.445 235.635 135.301 235.743 135.116C235.852 134.928 235.906 134.706 235.906 134.451C235.906 134.193 235.86 133.97 235.767 133.782C235.675 133.593 235.53 133.448 235.332 133.346C235.134 133.244 234.879 133.193 234.566 133.193H233.251L233.26 132.452H235.059L235.255 132.719C235.59 132.748 235.874 132.844 236.107 133.006C236.34 133.166 236.517 133.37 236.638 133.619C236.762 133.868 236.825 134.142 236.825 134.442C236.825 134.875 236.729 135.242 236.537 135.542C236.349 135.839 236.083 136.065 235.739 136.221C235.394 136.374 234.989 136.451 234.523 136.451ZM242.613 135.7V136.451H238.925V135.7H242.613ZM239.111 129.485V136.451H238.188V129.485H239.111ZM242.125 132.48V133.231H238.925V132.48H242.125ZM242.565 129.485V130.241H238.925V129.485H242.565ZM247.962 134.236H248.88C248.833 134.676 248.707 135.07 248.502 135.418C248.298 135.765 248.01 136.041 247.637 136.245C247.263 136.446 246.798 136.547 246.24 136.547C245.831 136.547 245.46 136.47 245.125 136.317C244.793 136.164 244.508 135.947 244.269 135.666C244.029 135.383 243.844 135.043 243.714 134.647C243.586 134.249 243.522 133.805 243.522 133.317V132.624C243.522 132.136 243.586 131.694 243.714 131.299C243.844 130.9 244.031 130.559 244.273 130.275C244.519 129.991 244.814 129.772 245.158 129.619C245.503 129.466 245.89 129.39 246.321 129.39C246.847 129.39 247.292 129.489 247.656 129.686C248.019 129.884 248.302 130.158 248.502 130.509C248.707 130.857 248.833 131.26 248.88 131.72H247.962C247.917 131.394 247.834 131.115 247.713 130.882C247.592 130.646 247.42 130.465 247.196 130.337C246.973 130.209 246.681 130.146 246.321 130.146C246.012 130.146 245.739 130.205 245.503 130.323C245.27 130.441 245.074 130.608 244.914 130.825C244.758 131.042 244.64 131.302 244.56 131.605C244.481 131.908 244.441 132.244 244.441 132.614V133.317C244.441 133.659 244.476 133.979 244.546 134.279C244.619 134.579 244.729 134.842 244.876 135.068C245.023 135.295 245.209 135.473 245.436 135.604C245.662 135.732 245.93 135.796 246.24 135.796C246.632 135.796 246.944 135.733 247.177 135.609C247.41 135.485 247.586 135.306 247.704 135.073C247.825 134.84 247.911 134.561 247.962 134.236ZM252.717 130.103L250.411 136.451H249.469L252.124 129.485H252.732L252.717 130.103ZM254.65 136.451L252.339 130.103L252.325 129.485H252.933L255.597 136.451H254.65ZM254.53 133.872V134.628H250.617V133.872H254.53ZM260.429 129.485H261.348V134.198C261.348 134.721 261.231 135.156 260.998 135.504C260.766 135.851 260.456 136.113 260.07 136.288C259.688 136.461 259.271 136.547 258.822 136.547C258.35 136.547 257.922 136.461 257.54 136.288C257.16 136.113 256.859 135.851 256.635 135.504C256.415 135.156 256.305 134.721 256.305 134.198V129.485H257.219V134.198C257.219 134.561 257.286 134.861 257.42 135.097C257.554 135.333 257.741 135.509 257.98 135.623C258.222 135.738 258.503 135.796 258.822 135.796C259.144 135.796 259.425 135.738 259.664 135.623C259.906 135.509 260.094 135.333 260.228 135.097C260.362 134.861 260.429 134.561 260.429 134.198V129.485ZM266.51 134.69C266.51 134.528 266.484 134.384 266.433 134.26C266.385 134.132 266.299 134.018 266.175 133.915C266.054 133.813 265.885 133.716 265.668 133.624C265.454 133.531 265.183 133.437 264.854 133.341C264.51 133.239 264.199 133.126 263.922 133.002C263.644 132.874 263.406 132.729 263.209 132.566C263.011 132.404 262.859 132.217 262.754 132.007C262.649 131.796 262.596 131.555 262.596 131.284C262.596 131.013 262.652 130.763 262.764 130.533C262.875 130.303 263.035 130.104 263.242 129.935C263.453 129.763 263.703 129.629 263.993 129.533C264.284 129.438 264.607 129.39 264.964 129.39C265.488 129.39 265.931 129.49 266.294 129.691C266.661 129.889 266.94 130.149 267.132 130.471C267.323 130.79 267.419 131.131 267.419 131.495H266.5C266.5 131.233 266.444 131.002 266.333 130.801C266.221 130.597 266.052 130.437 265.826 130.323C265.599 130.205 265.312 130.146 264.964 130.146C264.636 130.146 264.365 130.195 264.151 130.294C263.938 130.393 263.778 130.527 263.673 130.696C263.571 130.865 263.52 131.058 263.52 131.275C263.52 131.421 263.55 131.555 263.611 131.677C263.674 131.795 263.772 131.905 263.902 132.007C264.036 132.109 264.205 132.203 264.41 132.289C264.617 132.375 264.864 132.458 265.151 132.538C265.547 132.649 265.888 132.774 266.175 132.911C266.462 133.048 266.698 133.203 266.883 133.375C267.071 133.544 267.21 133.737 267.299 133.954C267.392 134.167 267.438 134.41 267.438 134.681C267.438 134.965 267.38 135.222 267.266 135.451C267.151 135.681 266.987 135.877 266.773 136.04C266.559 136.202 266.302 136.328 266.003 136.418C265.706 136.504 265.374 136.547 265.008 136.547C264.685 136.547 264.368 136.502 264.056 136.413C263.746 136.323 263.464 136.19 263.209 136.011C262.957 135.832 262.754 135.612 262.601 135.351C262.451 135.086 262.376 134.78 262.376 134.432H263.295C263.295 134.671 263.341 134.877 263.434 135.049C263.526 135.218 263.652 135.359 263.812 135.47C263.974 135.582 264.158 135.665 264.362 135.719C264.569 135.77 264.784 135.796 265.008 135.796C265.33 135.796 265.602 135.751 265.826 135.662C266.049 135.572 266.218 135.445 266.333 135.279C266.451 135.113 266.51 134.917 266.51 134.69ZM273.04 135.7V136.451H269.351V135.7H273.04ZM269.538 129.485V136.451H268.615V129.485H269.538ZM272.552 132.48V133.231H269.351V132.48H272.552ZM272.992 129.485V130.241H269.351V129.485H272.992ZM276.934 129.485L278.743 132.983L280.556 129.485H281.604L279.202 133.848V136.451H278.279V133.848L275.877 129.485H276.934ZM287.718 132.748V133.188C287.718 133.711 287.652 134.18 287.521 134.595C287.391 135.009 287.202 135.362 286.957 135.652C286.711 135.942 286.416 136.164 286.072 136.317C285.731 136.47 285.348 136.547 284.924 136.547C284.512 136.547 284.134 136.47 283.79 136.317C283.449 136.164 283.152 135.942 282.9 135.652C282.651 135.362 282.458 135.009 282.321 134.595C282.184 134.18 282.115 133.711 282.115 133.188V132.748C282.115 132.225 282.182 131.758 282.316 131.346C282.453 130.932 282.646 130.579 282.895 130.289C283.144 129.996 283.439 129.772 283.78 129.619C284.125 129.466 284.503 129.39 284.914 129.39C285.338 129.39 285.721 129.466 286.062 129.619C286.407 129.772 286.702 129.996 286.947 130.289C287.196 130.579 287.386 130.932 287.517 131.346C287.651 131.758 287.718 132.225 287.718 132.748ZM286.804 133.188V132.739C286.804 132.324 286.761 131.957 286.675 131.638C286.592 131.319 286.469 131.051 286.306 130.835C286.144 130.618 285.944 130.453 285.708 130.342C285.475 130.23 285.211 130.174 284.914 130.174C284.627 130.174 284.367 130.23 284.134 130.342C283.905 130.453 283.707 130.618 283.541 130.835C283.378 131.051 283.252 131.319 283.163 131.638C283.074 131.957 283.029 132.324 283.029 132.739V133.188C283.029 133.606 283.074 133.976 283.163 134.298C283.252 134.617 283.38 134.887 283.546 135.107C283.715 135.324 283.914 135.488 284.144 135.599C284.377 135.711 284.637 135.767 284.924 135.767C285.223 135.767 285.49 135.711 285.723 135.599C285.955 135.488 286.152 135.324 286.311 135.107C286.474 134.887 286.597 134.617 286.679 134.298C286.762 133.976 286.804 133.606 286.804 133.188ZM293.085 129.485H294.004V134.198C294.004 134.721 293.887 135.156 293.655 135.504C293.422 135.851 293.112 136.113 292.727 136.288C292.344 136.461 291.928 136.547 291.478 136.547C291.006 136.547 290.578 136.461 290.196 136.288C289.816 136.113 289.515 135.851 289.292 135.504C289.071 135.156 288.961 134.721 288.961 134.198V129.485H289.875V134.198C289.875 134.561 289.942 134.861 290.076 135.097C290.21 135.333 290.397 135.509 290.636 135.623C290.878 135.738 291.159 135.796 291.478 135.796C291.8 135.796 292.081 135.738 292.32 135.623C292.562 135.509 292.75 135.333 292.884 135.097C293.018 134.861 293.085 134.561 293.085 134.198V129.485ZM299.716 134.346L301.099 129.485H301.768L301.381 131.375L299.893 136.451H299.228L299.716 134.346ZM298.286 129.485L299.386 134.25L299.716 136.451H299.056L297.367 129.485H298.286ZM303.558 134.246L304.634 129.485H305.557L303.873 136.451H303.213L303.558 134.246ZM301.869 129.485L303.213 134.346L303.701 136.451H303.036L301.601 131.375L301.209 129.485H301.869ZM307.572 129.485V136.451H306.648V129.485H307.572ZM313.475 135.7V136.451H309.992V135.7H313.475ZM310.174 129.485V136.451H309.251V129.485H310.174ZM318.757 135.7V136.451H315.274V135.7H318.757ZM315.456 129.485V136.451H314.532V129.485H315.456ZM327.602 129.485V136.451H326.674L323.168 131.079V136.451H322.244V129.485H323.168L326.689 134.872V129.485H327.602ZM334.602 132.748V133.188C334.602 133.711 334.536 134.18 334.405 134.595C334.275 135.009 334.086 135.362 333.841 135.652C333.595 135.942 333.3 136.164 332.956 136.317C332.615 136.47 332.232 136.547 331.808 136.547C331.396 136.547 331.018 136.47 330.674 136.317C330.333 136.164 330.036 135.942 329.784 135.652C329.535 135.362 329.342 135.009 329.205 134.595C329.068 134.18 328.999 133.711 328.999 133.188V132.748C328.999 132.225 329.066 131.758 329.2 131.346C329.337 130.932 329.53 130.579 329.779 130.289C330.028 129.996 330.323 129.772 330.664 129.619C331.009 129.466 331.387 129.39 331.798 129.39C332.222 129.39 332.605 129.466 332.946 129.619C333.291 129.772 333.586 129.996 333.831 130.289C334.08 130.579 334.27 130.932 334.401 131.346C334.535 131.758 334.602 132.225 334.602 132.748ZM333.688 133.188V132.739C333.688 132.324 333.645 131.957 333.559 131.638C333.476 131.319 333.353 131.051 333.19 130.835C333.028 130.618 332.828 130.453 332.592 130.342C332.359 130.23 332.095 130.174 331.798 130.174C331.511 130.174 331.251 130.23 331.018 130.342C330.789 130.453 330.591 130.618 330.425 130.835C330.262 131.051 330.136 131.319 330.047 131.638C329.958 131.957 329.913 132.324 329.913 132.739V133.188C329.913 133.606 329.958 133.976 330.047 134.298C330.136 134.617 330.264 134.887 330.43 135.107C330.599 135.324 330.798 135.488 331.028 135.599C331.261 135.711 331.521 135.767 331.808 135.767C332.107 135.767 332.374 135.711 332.607 135.599C332.839 135.488 333.036 135.324 333.195 135.107C333.358 134.887 333.481 134.617 333.563 134.298C333.646 133.976 333.688 133.606 333.688 133.188ZM338.424 129.485V136.451H337.515V129.485H338.424ZM340.663 129.485V130.241H335.281V129.485H340.663ZM345.768 134.346L347.15 129.485H347.82L347.432 131.375L345.945 136.451H345.28L345.768 134.346ZM344.337 129.485L345.438 134.25L345.768 136.451H345.107L343.419 129.485H344.337ZM349.609 134.246L350.686 129.485H351.609L349.925 136.451H349.265L349.609 134.246ZM347.92 129.485L349.265 134.346L349.753 136.451H349.088L347.653 131.375L347.26 129.485H347.92ZM353.623 129.485V136.451H352.7V129.485H353.623ZM360.66 129.485V136.451H359.732L356.226 131.079V136.451H355.302V129.485H356.226L359.747 134.872V129.485H360.66Z" fill="black" fill-opacity="0.3"/>
<defs>
<filter id="filter0_i_208_6" x="0" y="0" width="460" height="254" filterUnits="userSpaceOnUse" color-interpolation-filters="sRGB">
<feFlood flood-opacity="0" result="BackgroundImageFix"/>
<feBlend mode="normal" in="SourceGraphic" in2="BackgroundImageFix" result="shape"/>
<feColorMatrix in="SourceAlpha" type="matrix" values="0 0 0 0 0 0 0 0 0 0 0 0 0 0 0 0 0 0 127 0" result="hardAlpha"/>
<feOffset dy="4"/>
<feGaussianBlur stdDeviation="25.9"/>
<feComposite in2="hardAlpha" operator="arithmetic" k2="-1" k3="1"/>
<feColorMatrix type="matrix" values="0 0 0 0 0 0 0 0 0 0 0 0 0 0 0 0 0 0 1 0"/>
<feBlend mode="normal" in2="shape" result="effect1_innerShadow_208_6"/>
</filter>
<filter id="filter1_i_208_6" x="7" y="8" width="446" height="236.728" filterUnits="userSpaceOnUse" color-interpolation-filters="sRGB">
<feFlood flood-opacity="0" result="BackgroundImageFix"/>
<feBlend mode="normal" in="SourceGraphic" in2="BackgroundImageFix" result="shape"/>
<feColorMatrix in="SourceAlpha" type="matrix" values="0 0 0 0 0 0 0 0 0 0 0 0 0 0 0 0 0 0 127 0" result="hardAlpha"/>
<feOffset dy="3.728"/>
<feGaussianBlur stdDeviation="24.1388"/>
<feComposite in2="hardAlpha" operator="arithmetic" k2="-1" k3="1"/>
<feColorMatrix type="matrix" values="0 0 0 0 0 0 0 0 0 0 0 0 0 0 0 0 0 0 1 0"/>
<feBlend mode="normal" in2="shape" result="effect1_innerShadow_208_6"/>
</filter>
</defs>
</svg>
